<svg id="svg" xmlns="http://www.w3.org/2000/svg" xmlns:xlink="http://www.w3.org/1999/xlink" width="400" height="400" viewBox="0, 0, 400,400" version="1.1"><g id="svgg"><path id="path0" d="M30.333 7.427 C 29.279 7.577,27.461 8.034,26.759 8.325 C 26.556 8.410,25.855 8.699,25.202 8.969 C 21.915 10.327,17.584 14.221,16.372 16.909 C 16.225 17.234,16.029 17.625,15.935 17.778 C 15.679 18.194,15.165 19.314,15.085 19.630 C 15.047 19.782,14.895 20.241,14.747 20.648 C 14.600 21.056,14.432 21.681,14.373 22.037 C 14.314 22.394,14.210 22.894,14.143 23.148 C 13.154 26.861,14.597 33.245,17.319 37.204 C 17.953 38.125,18.239 38.475,19.444 39.807 C 20.926 41.443,25.243 44.071,27.222 44.541 C 27.273 44.553,27.648 44.656,28.056 44.771 C 28.714 44.955,29.300 45.063,30.926 45.299 C 31.729 45.415,34.376 45.400,35.119 45.274 C 36.911 44.972,38.529 44.615,39.011 44.416 C 39.628 44.160,39.580 44.177,40.231 43.993 C 40.512 43.913,40.741 43.774,40.741 43.684 C 40.741 43.593,40.814 43.519,40.903 43.519 C 42.384 43.519,47.137 39.513,48.923 36.759 C 51.412 32.923,52.670 26.930,51.782 23.148 C 51.648 22.580,51.422 21.623,51.376 21.435 C 51.358 21.359,51.322 21.255,51.296 21.204 C 51.271 21.153,51.240 21.035,51.227 20.941 C 51.214 20.848,51.141 20.709,51.065 20.633 C 50.988 20.556,50.926 20.334,50.926 20.138 C 50.926 19.620,49.719 17.248,48.499 15.370 C 47.006 13.072,42.455 9.295,40.841 9.015 C 40.735 8.997,40.606 8.931,40.556 8.870 C 40.399 8.682,37.564 7.809,36.389 7.587 C 34.971 7.319,31.701 7.233,30.333 7.427 M373.519 7.402 C 369.559 8.241,368.279 10.330,368.256 15.990 L 368.241 19.907 364.259 20.014 C 360.016 20.127,359.679 20.179,358.762 20.859 C 358.438 21.099,358.113 21.296,358.039 21.296 C 357.966 21.296,357.603 21.625,357.232 22.027 C 354.566 24.914,355.164 29.443,358.508 31.689 C 359.870 32.604,360.663 32.744,364.613 32.770 C 366.488 32.782,368.098 32.839,368.191 32.897 C 368.284 32.954,368.342 34.574,368.321 36.547 C 368.285 40.010,368.493 41.852,368.922 41.852 C 369.018 41.852,369.044 41.935,368.981 42.037 C 368.919 42.139,368.955 42.222,369.063 42.222 C 369.171 42.222,369.259 42.313,369.259 42.425 C 369.259 42.829,370.850 44.284,371.757 44.708 C 375.208 46.325,378.788 45.006,380.516 41.481 C 380.947 40.604,381.088 39.157,381.053 35.972 L 381.019 32.778 384.352 32.764 C 386.185 32.756,387.810 32.724,387.963 32.692 C 388.116 32.660,388.513 32.590,388.846 32.536 C 390.491 32.271,392.853 30.116,393.250 28.519 C 393.262 28.468,393.342 28.267,393.427 28.073 C 394.465 25.689,392.616 21.810,389.835 20.540 L 388.652 20.000 384.882 20.000 L 381.111 20.000 381.089 16.898 C 381.077 15.192,381.077 13.735,381.088 13.661 C 381.588 10.398,377.058 6.652,373.519 7.402 M265.833 7.524 C 264.500 7.865,262.827 8.729,262.403 9.294 C 262.111 9.683,260.918 11.091,260.251 11.832 C 259.226 12.972,257.277 15.241,256.513 16.183 C 256.173 16.602,255.777 17.011,255.633 17.093 C 255.489 17.174,255.370 17.320,255.370 17.417 C 255.370 17.513,255.225 17.742,255.046 17.925 C 254.868 18.107,254.264 18.788,253.704 19.437 C 253.144 20.086,252.058 21.332,251.291 22.206 C 250.524 23.081,249.525 24.255,249.072 24.815 C 248.618 25.375,248.119 25.958,247.963 26.111 C 247.806 26.264,247.305 26.847,246.850 27.407 C 246.394 27.968,245.715 28.759,245.340 29.167 C 244.966 29.574,244.467 30.157,244.232 30.463 C 243.997 30.769,243.497 31.352,243.121 31.759 C 242.745 32.167,242.243 32.749,242.006 33.054 C 241.768 33.358,241.449 33.736,241.296 33.894 C 241.144 34.051,240.602 34.672,240.093 35.272 C 239.583 35.873,238.833 36.752,238.426 37.225 C 238.019 37.698,237.394 38.441,237.037 38.876 C 236.681 39.311,236.181 39.888,235.926 40.158 C 235.671 40.428,235.130 41.065,234.722 41.574 C 234.315 42.083,233.934 42.542,233.876 42.593 C 233.818 42.644,233.194 43.352,232.490 44.167 C 231.786 44.981,231.026 45.856,230.803 46.111 C 229.991 47.036,229.582 47.516,228.918 48.318 C 228.545 48.768,228.074 49.321,227.870 49.548 C 227.270 50.215,226.639 50.943,225.556 52.216 C 224.995 52.875,224.341 53.625,224.101 53.883 C 221.425 56.758,222.688 62.054,226.481 63.865 L 227.500 64.352 234.583 64.406 L 241.667 64.461 241.667 73.712 C 241.667 78.800,241.604 82.962,241.528 82.962 C 241.451 82.961,240.847 82.790,240.185 82.583 C 239.523 82.375,238.856 82.169,238.704 82.125 C 238.551 82.081,237.843 81.871,237.130 81.659 C 235.048 81.039,233.866 80.714,232.778 80.463 C 232.218 80.334,230.968 80.045,230.000 79.821 C 229.032 79.596,228.032 79.374,227.778 79.327 C 227.523 79.280,227.023 79.167,226.667 79.076 C 226.310 78.985,225.682 78.862,225.270 78.804 C 224.859 78.745,224.359 78.667,224.159 78.630 C 223.960 78.593,223.421 78.501,222.963 78.426 C 222.505 78.351,221.996 78.265,221.834 78.235 C 221.671 78.205,221.088 78.128,220.537 78.065 C 219.987 78.001,219.329 77.913,219.074 77.869 C 218.066 77.695,215.910 77.471,213.611 77.300 C 213.102 77.262,211.852 77.167,210.833 77.088 C 204.954 76.632,194.879 76.987,188.314 77.882 C 187.947 77.932,187.322 78.007,186.925 78.048 C 185.133 78.235,180.597 79.056,177.685 79.720 C 174.700 80.402,170.264 81.537,170.093 81.663 C 169.991 81.738,169.324 81.949,168.611 82.133 C 167.898 82.316,167.236 82.536,167.139 82.622 C 167.042 82.708,166.816 82.778,166.637 82.778 C 166.332 82.778,162.842 84.001,161.546 84.562 C 161.225 84.701,160.843 84.815,160.697 84.815 C 160.551 84.815,160.377 84.870,160.309 84.938 C 160.242 85.005,159.790 85.205,159.306 85.380 C 158.822 85.556,158.093 85.850,157.685 86.033 C 157.278 86.217,156.903 86.374,156.852 86.383 C 156.801 86.391,156.259 86.635,155.648 86.923 C 155.037 87.212,154.245 87.575,153.889 87.730 C 150.971 89.002,144.837 92.194,142.608 93.601 C 142.196 93.861,141.824 94.074,141.782 94.074 C 141.716 94.074,140.999 94.532,139.444 95.567 C 139.292 95.669,138.375 96.267,137.407 96.897 C 136.440 97.528,135.620 98.108,135.586 98.188 C 135.552 98.268,135.427 98.334,135.309 98.336 C 135.190 98.337,134.884 98.505,134.630 98.710 C 134.375 98.914,133.466 99.600,132.610 100.235 C 130.256 101.980,130.108 102.091,129.428 102.629 C 129.080 102.903,128.463 103.389,128.056 103.708 C 126.993 104.541,125.351 105.953,122.891 108.148 C 119.371 111.289,113.344 117.669,110.807 120.938 C 110.220 121.695,109.610 122.440,109.453 122.593 C 108.785 123.241,104.074 129.712,104.074 129.982 C 104.074 130.077,104.010 130.182,103.931 130.216 C 103.783 130.280,102.396 132.283,102.157 132.778 C 101.992 133.118,101.761 133.492,100.874 134.852 C 100.495 135.433,100.185 135.952,100.185 136.006 C 100.185 136.060,99.908 136.543,99.568 137.080 C 99.229 137.616,98.500 138.931,97.948 140.000 C 97.396 141.069,96.882 141.972,96.806 142.006 C 96.729 142.040,96.667 142.215,96.667 142.395 C 96.667 142.574,96.502 142.911,96.300 143.144 C 96.099 143.376,95.973 143.629,96.020 143.707 C 96.068 143.784,95.983 143.950,95.831 144.076 C 95.680 144.202,95.556 144.376,95.556 144.464 C 95.556 144.551,95.207 145.353,94.781 146.246 C 94.355 147.140,94.022 147.933,94.040 148.009 C 94.059 148.086,94.000 148.148,93.909 148.148 C 93.818 148.148,93.687 148.376,93.617 148.655 C 93.490 149.159,91.995 152.765,91.658 153.377 C 91.561 153.554,91.481 153.791,91.481 153.905 C 91.481 154.018,91.363 154.373,91.219 154.694 C 90.797 155.634,89.850 158.388,88.344 163.056 C 88.178 163.570,86.914 168.333,86.756 169.040 C 86.718 169.211,86.555 169.935,86.395 170.648 C 86.134 171.806,85.927 172.833,85.668 174.259 C 85.621 174.514,85.457 175.310,85.302 176.029 C 85.147 176.748,84.968 177.748,84.905 178.252 C 84.842 178.755,84.675 179.917,84.534 180.833 C 84.392 181.750,84.223 183.083,84.159 183.796 C 84.094 184.509,84.018 185.343,83.989 185.648 C 83.673 189.064,83.612 190.845,83.611 196.667 C 83.611 202.423,83.691 204.958,83.975 208.241 C 84.002 208.546,84.127 209.630,84.254 210.648 C 84.380 211.667,84.506 212.708,84.532 212.963 C 84.559 213.218,84.633 213.759,84.697 214.167 C 84.760 214.574,84.845 215.162,84.884 215.472 C 84.953 216.015,85.258 217.688,85.861 220.833 C 86.257 222.896,86.269 222.955,86.374 223.302 C 86.425 223.472,86.503 223.820,86.547 224.076 C 86.590 224.332,86.756 224.979,86.915 225.514 C 87.074 226.049,87.210 226.526,87.218 226.575 C 87.226 226.623,87.261 226.768,87.297 226.896 C 87.332 227.025,87.461 227.588,87.583 228.148 C 87.865 229.437,89.730 235.558,90.123 236.481 C 90.188 236.634,90.262 236.843,90.287 236.944 C 90.488 237.766,92.663 243.249,93.555 245.185 C 93.954 246.051,94.347 246.926,94.429 247.130 C 95.288 249.282,98.568 255.489,100.578 258.768 C 101.381 260.076,102.037 261.222,102.037 261.314 C 102.037 261.406,102.105 261.481,102.188 261.481 C 102.271 261.481,102.534 261.829,102.773 262.253 C 103.139 262.904,104.282 264.637,104.893 265.466 C 105.015 265.632,101.914 268.845,93.931 276.825 L 82.800 287.952 81.798 287.509 C 80.103 286.760,79.125 286.552,76.437 286.369 C 75.462 286.302,74.468 286.343,73.937 286.470 C 73.452 286.586,72.972 286.687,72.870 286.694 C 72.658 286.709,71.477 287.142,70.620 287.520 C 70.299 287.662,69.988 287.778,69.929 287.778 C 68.952 287.778,15.701 340.633,15.204 342.097 C 15.163 342.217,15.077 342.356,15.012 342.407 C 13.848 343.327,10.906 349.539,10.363 352.222 C 9.473 356.629,9.468 356.684,9.529 360.463 C 9.593 364.449,9.630 364.787,10.287 367.315 C 10.938 369.820,11.131 370.440,11.338 370.694 C 11.442 370.822,11.470 370.926,11.401 370.926 C 11.332 370.926,11.399 371.155,11.551 371.435 C 11.702 371.715,12.054 372.444,12.333 373.056 C 12.923 374.347,14.024 376.230,14.491 376.748 C 14.669 376.945,14.815 377.184,14.815 377.278 C 14.815 378.693,24.221 386.667,25.891 386.667 C 25.995 386.667,26.108 386.729,26.142 386.806 C 26.211 386.960,27.899 387.766,28.333 387.852 C 28.486 387.882,28.736 387.960,28.889 388.026 C 29.544 388.305,31.296 388.862,31.296 388.791 C 31.296 388.748,31.525 388.800,31.806 388.907 C 32.086 389.014,32.565 389.136,32.870 389.178 C 33.176 389.220,33.634 389.299,33.889 389.355 C 36.024 389.819,42.175 389.937,43.704 389.542 C 43.958 389.476,44.417 389.383,44.722 389.335 C 46.594 389.041,49.432 388.232,50.926 387.568 C 53.121 386.592,53.457 386.431,53.889 386.147 C 54.144 385.980,54.399 385.841,54.457 385.838 C 54.608 385.831,57.341 383.929,57.665 383.605 C 57.814 383.456,58.005 383.333,58.089 383.332 C 58.230 383.331,109.437 332.099,110.295 331.100 C 110.725 330.600,111.600 329.246,111.636 329.026 C 111.649 328.948,111.784 328.644,111.937 328.349 C 113.322 325.669,113.332 320.462,111.957 317.802 L 111.664 317.236 122.788 306.164 C 128.907 300.075,133.941 295.066,133.976 295.032 C 134.038 294.974,135.551 295.907,135.741 296.119 C 136.099 296.521,142.516 300.556,142.797 300.556 C 142.888 300.556,142.963 300.639,142.963 300.741 C 142.963 300.843,143.054 300.926,143.166 300.926 C 143.277 300.926,143.598 301.089,143.879 301.289 C 144.815 301.955,151.741 305.506,154.815 306.895 C 155.273 307.102,155.958 307.431,156.338 307.626 C 156.717 307.821,157.072 307.975,157.127 307.968 C 157.181 307.961,157.474 308.084,157.778 308.241 C 158.081 308.398,158.351 308.518,158.378 308.509 C 158.404 308.500,158.661 308.582,158.947 308.691 C 159.234 308.800,159.513 308.889,159.567 308.889 C 159.622 308.889,159.929 309.012,160.250 309.163 C 161.430 309.717,167.045 311.666,167.467 311.668 C 167.587 311.668,167.926 311.794,168.220 311.948 C 168.514 312.101,169.264 312.354,169.886 312.510 C 170.509 312.666,171.269 312.868,171.574 312.959 C 172.669 313.286,175.113 313.929,176.204 314.178 C 176.815 314.317,177.898 314.565,178.611 314.729 C 180.512 315.165,181.287 315.323,182.222 315.463 C 184.065 315.739,185.319 315.946,185.556 316.012 C 185.708 316.055,186.283 316.144,186.834 316.209 C 187.384 316.275,187.983 316.357,188.164 316.392 C 188.346 316.427,189.020 316.504,189.664 316.564 C 190.307 316.624,191.125 316.712,191.481 316.760 C 196.319 317.414,210.018 317.526,214.537 316.949 C 214.843 316.910,215.593 316.832,216.204 316.776 C 218.364 316.579,225.140 315.605,225.379 315.457 C 225.440 315.420,225.900 315.338,226.402 315.274 C 226.904 315.210,227.606 315.085,227.963 314.995 C 228.319 314.906,228.847 314.791,229.134 314.741 C 229.422 314.690,229.922 314.569,230.246 314.471 C 230.569 314.373,231.792 314.071,232.963 313.801 C 234.134 313.530,235.468 313.196,235.926 313.059 C 236.384 312.921,237.384 312.624,238.148 312.398 C 240.377 311.740,245.076 310.164,245.278 310.008 C 245.380 309.929,245.921 309.717,246.481 309.537 C 247.042 309.357,247.617 309.117,247.760 309.003 C 247.903 308.889,248.048 308.815,248.082 308.838 C 248.167 308.894,248.672 308.721,249.444 308.369 C 249.801 308.207,250.176 308.059,250.278 308.040 C 250.380 308.020,251.283 307.620,252.286 307.151 C 253.288 306.681,254.156 306.296,254.215 306.296 C 254.423 306.296,261.394 302.733,261.681 302.480 C 261.842 302.338,262.060 302.222,262.166 302.222 C 262.271 302.222,262.577 302.050,262.845 301.838 C 263.114 301.627,263.333 301.515,263.333 301.589 C 263.333 301.663,263.479 301.600,263.657 301.448 C 263.836 301.296,264.688 300.770,265.552 300.278 C 266.416 299.787,267.222 299.286,267.342 299.166 C 267.463 299.045,267.818 298.840,268.132 298.710 C 268.447 298.580,268.704 298.400,268.704 298.311 C 268.704 298.221,268.776 298.148,268.865 298.148 C 269.113 298.148,272.903 295.580,274.537 294.305 C 275.057 293.899,275.743 293.396,276.112 293.148 C 276.340 292.995,276.621 292.786,276.736 292.682 C 276.850 292.579,277.694 291.912,278.611 291.201 C 279.527 290.490,280.410 289.783,280.574 289.630 C 280.737 289.477,281.030 289.227,281.225 289.074 C 284.159 286.774,290.912 280.158,293.981 276.576 C 294.491 275.982,294.996 275.405,295.103 275.294 C 296.428 273.931,302.037 266.680,302.037 266.331 C 302.037 266.235,302.171 266.045,302.335 265.909 C 302.707 265.601,304.815 262.461,304.815 262.216 C 304.815 262.118,304.885 262.037,304.971 262.037 C 305.057 262.037,305.286 261.725,305.480 261.343 C 305.674 260.961,305.880 260.606,305.937 260.556 C 306.049 260.456,307.119 258.689,307.759 257.546 C 307.973 257.164,308.330 256.539,308.553 256.157 C 309.282 254.908,309.940 253.652,311.295 250.926 C 312.029 249.449,312.912 247.678,313.257 246.991 C 313.602 246.303,313.833 245.741,313.771 245.741 C 313.709 245.741,313.741 245.637,313.841 245.509 C 314.411 244.789,317.056 237.827,318.644 232.870 C 319.889 228.984,321.824 221.165,321.875 219.815 C 321.880 219.662,321.959 219.287,322.050 218.981 C 322.141 218.676,322.262 218.093,322.319 217.685 C 322.376 217.278,322.499 216.528,322.593 216.019 C 322.798 214.897,322.903 214.146,323.058 212.685 C 323.123 212.074,323.204 211.395,323.239 211.176 C 323.402 210.146,323.597 208.072,323.836 204.815 C 324.014 202.389,324.013 192.594,323.835 190.000 C 323.754 188.829,323.654 187.372,323.612 186.762 C 323.571 186.152,323.479 185.319,323.410 184.910 C 323.340 184.501,323.259 183.833,323.229 183.426 C 323.200 183.019,323.131 182.352,323.076 181.944 C 323.021 181.537,322.927 180.787,322.867 180.278 C 322.807 179.769,322.682 178.935,322.590 178.426 C 322.498 177.917,322.381 177.250,322.330 176.944 C 322.165 175.959,322.008 175.112,321.833 174.259 C 321.739 173.801,321.618 173.134,321.565 172.778 C 321.512 172.421,321.374 171.796,321.259 171.389 C 320.999 170.472,320.987 170.421,320.843 169.652 C 320.625 168.479,319.246 163.353,318.944 162.593 C 318.883 162.440,318.803 162.148,318.766 161.944 C 318.729 161.741,318.442 160.866,318.128 160.000 C 317.815 159.134,317.520 158.225,317.474 157.979 C 317.427 157.733,317.219 157.158,317.011 156.701 C 316.802 156.244,316.593 155.656,316.546 155.395 C 316.498 155.133,316.395 154.833,316.317 154.728 C 316.239 154.623,316.025 154.120,315.842 153.611 C 315.659 153.102,315.399 152.435,315.266 152.130 C 314.682 150.794,314.387 150.080,314.347 149.907 C 314.232 149.408,310.525 141.849,309.171 139.352 C 308.201 137.564,306.431 134.557,306.283 134.444 C 306.216 134.394,306.109 134.185,306.044 133.981 C 305.980 133.778,305.678 133.319,305.372 132.963 C 305.066 132.606,304.815 132.255,304.815 132.181 C 304.814 131.911,300.040 125.093,299.138 124.074 C 298.914 123.821,297.264 121.752,296.103 120.268 C 295.843 119.936,295.010 118.979,294.251 118.140 C 293.492 117.301,292.755 116.450,292.614 116.249 C 292.384 115.922,292.238 64.738,292.466 64.510 C 292.497 64.478,295.517 64.444,299.178 64.434 C 305.142 64.417,305.949 64.378,306.946 64.066 C 309.402 63.297,311.260 60.733,311.315 58.036 C 311.362 55.747,311.081 55.172,308.423 52.130 C 306.732 50.194,305.855 49.168,305.093 48.232 C 304.127 47.048,303.133 45.912,302.752 45.559 C 302.585 45.404,302.078 44.813,301.626 44.245 C 301.174 43.676,300.644 43.041,300.448 42.834 C 299.908 42.260,299.245 41.492,298.348 40.403 C 297.901 39.861,297.278 39.141,296.962 38.802 C 296.647 38.464,296.056 37.787,295.648 37.297 C 295.241 36.808,294.762 36.257,294.583 36.074 C 294.405 35.891,294.259 35.664,294.259 35.571 C 294.259 35.478,294.184 35.373,294.091 35.340 C 293.916 35.275,292.474 33.672,291.204 32.130 C 290.796 31.635,290.380 31.141,290.278 31.032 C 290.176 30.922,289.760 30.416,289.353 29.907 C 288.947 29.398,288.447 28.810,288.242 28.601 C 288.038 28.392,287.579 27.860,287.222 27.419 C 286.866 26.977,286.407 26.429,286.204 26.200 C 286.000 25.972,285.500 25.383,285.093 24.893 C 284.685 24.402,284.185 23.814,283.981 23.586 C 283.778 23.359,283.028 22.486,282.315 21.647 C 281.602 20.808,280.644 19.697,280.185 19.177 C 279.727 18.658,278.977 17.784,278.519 17.237 C 278.060 16.689,277.496 16.032,277.266 15.776 C 277.035 15.520,276.522 14.928,276.125 14.461 C 275.727 13.993,275.221 13.403,275.000 13.148 C 274.779 12.894,274.251 12.273,273.827 11.770 C 270.737 8.101,268.407 6.864,265.833 7.524 M35.689 20.776 C 41.750 23.772,39.286 32.887,32.520 32.498 C 29.940 32.350,27.295 30.200,26.942 27.963 C 26.691 26.376,26.675 25.891,26.849 25.179 C 26.960 24.724,27.071 24.267,27.095 24.164 C 27.805 21.100,32.555 19.228,35.689 20.776 M267.591 24.206 C 267.808 24.482,268.434 25.212,268.982 25.826 C 269.530 26.441,271.042 28.194,272.341 29.722 C 274.584 32.360,278.127 36.468,278.331 36.667 C 278.383 36.718,278.841 37.259,279.347 37.870 C 279.854 38.481,280.496 39.231,280.773 39.537 C 281.319 40.139,281.600 40.467,282.593 41.669 C 282.949 42.101,283.458 42.690,283.724 42.978 C 283.989 43.266,284.531 43.896,284.927 44.378 C 285.324 44.860,285.773 45.389,285.926 45.552 C 286.079 45.716,286.616 46.346,287.120 46.953 C 287.624 47.559,288.165 48.191,288.323 48.357 C 288.634 48.682,288.911 49.012,290.127 50.499 C 291.111 51.702,291.110 51.703,287.553 51.643 C 283.528 51.575,280.363 53.236,280.098 55.556 C 280.092 55.606,280.030 55.737,279.961 55.846 C 279.891 55.955,279.778 56.289,279.710 56.587 C 279.642 56.885,279.558 89.994,279.523 130.162 C 279.488 170.330,279.412 203.497,279.353 203.866 C 279.294 204.235,279.204 204.954,279.154 205.463 C 279.041 206.596,278.713 208.999,278.585 209.630 C 278.533 209.884,278.332 210.884,278.138 211.852 C 277.552 214.766,277.474 215.113,277.355 215.305 C 277.293 215.406,277.204 215.691,277.158 215.939 C 276.960 216.997,276.049 220.012,275.545 221.273 C 275.245 222.024,275.000 222.778,275.000 222.949 C 275.000 223.120,274.927 223.338,274.838 223.435 C 274.748 223.532,274.505 224.069,274.297 224.630 C 274.089 225.190,273.795 225.898,273.644 226.204 C 273.494 226.509,273.106 227.370,272.783 228.116 C 272.461 228.862,271.950 229.904,271.648 230.431 C 271.347 230.958,270.895 231.806,270.644 232.315 C 270.393 232.824,270.020 233.491,269.816 233.796 C 269.611 234.102,269.325 234.602,269.179 234.907 C 269.034 235.213,268.700 235.750,268.439 236.101 C 268.177 236.452,267.963 236.840,267.963 236.965 C 267.963 237.089,267.899 237.219,267.821 237.253 C 267.742 237.287,267.402 237.750,267.065 238.281 C 266.522 239.134,265.750 240.201,265.187 240.872 C 265.084 240.995,265.000 241.182,265.000 241.288 C 265.000 241.395,264.919 241.481,264.820 241.481 C 264.720 241.481,264.512 241.727,264.357 242.027 C 264.202 242.327,263.887 242.777,263.658 243.026 C 263.428 243.275,263.019 243.759,262.747 244.100 C 262.476 244.442,262.078 244.931,261.862 245.185 C 261.646 245.440,261.159 246.016,260.781 246.465 C 260.402 246.915,258.843 248.540,257.315 250.076 L 254.537 252.870 254.443 154.630 C 254.387 96.628,254.279 56.199,254.180 55.926 C 253.044 52.791,250.920 51.626,246.389 51.654 C 243.104 51.674,242.908 51.604,243.744 50.714 C 244.078 50.359,244.685 49.665,245.093 49.172 C 246.239 47.785,248.158 45.520,248.396 45.274 C 248.721 44.938,249.428 44.121,250.637 42.685 C 251.237 41.972,251.780 41.347,251.843 41.296 C 251.906 41.245,252.130 40.979,252.340 40.704 C 252.551 40.429,253.146 39.721,253.663 39.130 C 254.179 38.539,255.170 37.389,255.866 36.574 C 256.561 35.760,257.311 34.885,257.533 34.630 C 257.755 34.375,258.088 33.991,258.274 33.776 C 258.459 33.561,259.000 32.936,259.475 32.387 C 259.950 31.838,261.189 30.389,262.228 29.167 C 263.267 27.944,264.378 26.650,264.697 26.290 C 265.017 25.930,265.640 25.200,266.082 24.669 C 267.013 23.552,267.064 23.536,267.591 24.206 M210.185 89.894 C 211.356 89.967,212.648 90.061,213.056 90.102 C 213.463 90.143,214.255 90.223,214.815 90.280 C 215.375 90.337,216.417 90.469,217.130 90.574 C 217.843 90.678,219.009 90.837,219.722 90.925 C 220.435 91.014,221.227 91.135,221.481 91.194 C 221.736 91.253,222.731 91.430,223.692 91.587 C 224.654 91.745,225.500 91.910,225.574 91.956 C 225.647 92.001,226.361 92.173,227.159 92.339 C 229.034 92.726,228.937 92.703,229.259 92.837 C 229.412 92.900,229.749 92.988,230.008 93.031 C 230.268 93.074,231.101 93.287,231.860 93.503 C 232.619 93.719,233.574 93.987,233.981 94.097 C 234.895 94.343,237.893 95.330,240.000 96.077 L 241.574 96.635 241.622 106.832 L 241.670 117.029 241.252 116.868 C 241.022 116.780,240.375 116.498,239.815 116.242 C 236.968 114.942,232.821 113.304,231.759 113.061 C 231.657 113.038,231.449 112.971,231.296 112.913 C 230.755 112.707,228.411 111.994,227.407 111.729 C 224.161 110.874,223.390 110.681,223.056 110.637 C 222.852 110.610,222.310 110.503,221.852 110.398 C 220.759 110.148,214.617 109.108,214.259 109.113 C 213.937 109.117,212.055 108.913,211.111 108.772 C 209.821 108.579,199.121 108.523,197.315 108.700 C 191.252 109.294,188.617 109.673,185.463 110.404 C 184.139 110.712,182.885 110.987,182.677 111.017 C 181.204 111.225,173.968 113.528,171.389 114.610 C 171.185 114.695,170.810 114.851,170.556 114.956 C 170.301 115.061,169.801 115.272,169.444 115.423 C 169.088 115.575,168.588 115.761,168.333 115.837 C 168.079 115.912,167.412 116.227,166.852 116.537 C 166.292 116.846,165.811 117.082,165.784 117.061 C 165.196 116.607,160.523 120.133,160.261 121.229 C 160.191 121.520,160.041 121.876,159.928 122.019 C 159.357 122.739,159.941 127.403,160.602 127.407 C 160.678 127.407,160.741 127.484,160.741 127.577 C 160.741 127.961,162.113 129.237,163.015 129.692 C 164.747 130.566,166.953 130.693,168.322 129.998 C 168.481 129.917,169.153 129.600,169.815 129.293 C 170.477 128.986,171.727 128.405,172.593 128.003 C 173.999 127.348,175.081 126.903,177.500 125.986 C 181.294 124.546,186.462 123.138,190.185 122.528 C 190.440 122.486,191.003 122.393,191.436 122.321 C 192.217 122.191,192.367 122.168,193.796 121.962 C 196.534 121.569,199.338 121.400,203.241 121.394 C 206.515 121.389,211.406 121.590,211.886 121.750 C 212.020 121.794,212.588 121.876,213.148 121.932 C 213.708 121.988,214.375 122.070,214.630 122.114 C 214.884 122.157,215.384 122.236,215.741 122.288 C 216.097 122.341,216.847 122.476,217.407 122.590 C 217.968 122.704,218.634 122.833,218.889 122.878 C 219.144 122.923,219.727 123.045,220.185 123.149 C 220.644 123.253,221.185 123.368,221.389 123.403 C 221.593 123.438,222.676 123.736,223.796 124.064 C 224.917 124.393,225.983 124.692,226.166 124.729 C 226.349 124.766,227.188 125.051,228.031 125.361 C 228.874 125.672,229.631 125.926,229.713 125.926 C 229.795 125.926,230.664 126.269,231.644 126.688 C 233.832 127.624,234.326 127.832,234.444 127.867 C 234.495 127.882,235.287 128.258,236.204 128.704 C 237.120 129.149,237.912 129.523,237.963 129.534 C 238.014 129.545,238.316 129.717,238.634 129.916 C 238.953 130.115,239.765 130.569,240.438 130.926 L 241.664 131.574 241.665 139.028 L 241.667 146.481 223.080 146.481 L 204.494 146.481 203.188 147.135 C 201.936 147.761,200.185 149.383,200.185 149.916 C 200.185 150.033,200.062 150.375,199.912 150.676 C 199.476 151.549,199.473 151.643,199.458 161.894 L 199.444 171.658 181.065 171.713 C 170.956 171.743,162.513 171.821,162.303 171.885 C 160.269 172.509,158.229 174.287,157.692 175.906 C 157.255 177.220,157.269 176.862,157.244 187.639 L 157.222 197.037 142.568 197.037 L 127.913 197.037 128.038 194.213 C 128.107 192.660,128.197 191.097,128.238 190.741 C 128.279 190.384,128.363 189.593,128.425 188.981 C 128.552 187.718,129.045 184.308,129.161 183.889 C 129.203 183.736,129.285 183.278,129.343 182.870 C 129.623 180.907,131.239 174.731,131.948 172.916 C 132.097 172.534,132.230 172.159,132.243 172.083 C 132.256 172.007,132.347 171.736,132.446 171.481 C 132.545 171.227,132.653 170.882,132.687 170.715 C 132.721 170.549,132.830 170.257,132.929 170.067 C 133.029 169.877,133.253 169.347,133.428 168.889 C 133.969 167.473,134.820 165.537,135.667 163.796 C 136.805 161.457,137.115 159.277,136.493 157.982 C 136.415 157.819,136.193 157.352,135.999 156.946 C 134.056 152.855,127.070 152.498,125.093 156.389 C 124.889 156.790,124.618 157.230,124.491 157.368 C 124.363 157.506,124.259 157.707,124.259 157.814 C 124.259 157.922,124.011 158.499,123.707 159.097 C 123.403 159.696,123.215 160.186,123.290 160.188 C 123.365 160.190,123.336 160.252,123.226 160.327 C 123.117 160.402,122.758 161.130,122.430 161.944 C 122.101 162.759,121.742 163.634,121.632 163.889 C 120.965 165.432,120.000 168.122,120.000 168.438 C 120.000 168.604,119.880 169.003,119.733 169.324 C 119.388 170.078,118.729 172.107,118.522 173.056 C 118.433 173.463,118.186 174.421,117.973 175.185 C 117.761 175.949,117.537 176.907,117.476 177.315 C 117.415 177.722,117.303 178.181,117.226 178.333 C 117.093 178.596,116.996 179.063,116.761 180.556 C 116.705 180.912,116.581 181.620,116.485 182.130 C 116.234 183.470,116.139 184.140,115.922 186.111 C 115.816 187.079,115.695 188.120,115.653 188.426 C 115.159 191.998,115.151 202.016,115.639 205.833 C 115.691 206.241,115.774 206.949,115.823 207.407 C 116.113 210.091,116.406 212.088,116.666 213.148 C 116.753 213.505,117.041 214.796,117.306 216.019 C 117.738 218.018,117.864 218.559,118.037 219.167 C 118.066 219.269,118.154 219.602,118.231 219.907 C 118.528 221.079,119.470 224.184,119.637 224.537 C 119.732 224.741,119.971 225.407,120.167 226.019 C 120.544 227.192,121.313 229.162,121.759 230.093 C 121.905 230.398,122.198 231.099,122.410 231.651 C 122.623 232.202,123.348 233.744,124.022 235.077 C 124.695 236.410,125.410 237.833,125.610 238.241 C 125.810 238.648,126.150 239.231,126.366 239.537 C 126.582 239.843,126.759 240.134,126.760 240.185 C 126.760 240.236,127.052 240.736,127.408 241.296 C 127.764 241.856,128.088 242.398,128.129 242.500 C 128.249 242.800,131.213 247.182,132.460 248.902 C 133.639 250.527,134.525 251.637,135.839 253.132 C 136.249 253.599,136.999 254.479,137.505 255.088 C 139.214 257.142,144.602 262.399,147.093 264.444 C 147.404 264.699,147.858 265.090,148.104 265.314 C 149.524 266.606,154.621 270.297,156.783 271.599 C 157.585 272.082,158.491 272.660,158.796 272.884 C 159.102 273.109,160.435 273.874,161.759 274.586 C 163.083 275.298,164.552 276.096,165.023 276.359 C 165.493 276.622,165.931 276.785,165.995 276.721 C 166.059 276.657,166.111 276.697,166.111 276.809 C 166.111 276.920,166.299 277.067,166.528 277.135 C 166.757 277.202,167.486 277.507,168.148 277.812 C 169.400 278.388,169.607 278.478,170.833 278.984 C 171.241 279.153,171.865 279.417,172.222 279.571 C 173.510 280.130,175.185 280.722,175.185 280.617 C 175.185 280.558,175.289 280.589,175.417 280.686 C 175.690 280.894,176.876 281.314,178.426 281.753 C 179.037 281.926,179.912 282.179,180.370 282.315 C 181.676 282.704,183.322 283.166,183.667 283.242 C 183.840 283.280,184.773 283.488,185.741 283.704 C 188.419 284.302,188.767 284.371,189.907 284.538 C 191.913 284.832,194.457 285.175,195.370 285.275 C 195.931 285.336,196.722 285.425,197.130 285.471 C 199.081 285.695,208.212 285.683,210.556 285.453 C 211.931 285.319,213.597 285.157,214.259 285.093 C 214.921 285.029,216.588 284.776,217.963 284.530 C 219.338 284.284,220.700 284.043,220.990 283.993 C 222.013 283.817,226.951 282.577,227.407 282.382 C 227.662 282.273,228.057 282.150,228.284 282.107 C 228.512 282.065,229.554 281.739,230.599 281.382 C 231.645 281.025,232.750 280.657,233.056 280.565 C 234.003 280.277,235.223 279.809,236.249 279.339 C 236.790 279.091,237.278 278.889,237.332 278.889 C 237.387 278.889,237.863 278.692,238.391 278.451 C 238.920 278.211,239.539 277.955,239.769 277.883 C 239.998 277.812,240.185 277.675,240.185 277.580 C 240.185 277.485,240.248 277.426,240.324 277.448 C 240.481 277.493,244.973 275.282,246.389 274.462 C 246.898 274.167,247.617 273.757,247.987 273.551 C 248.807 273.095,251.488 271.383,251.798 271.118 C 251.921 271.012,252.088 270.926,252.170 270.926 C 252.252 270.926,252.527 270.738,252.783 270.509 C 253.038 270.280,253.745 269.760,254.355 269.354 C 254.964 268.948,255.505 268.573,255.556 268.520 C 255.606 268.467,255.981 268.179,256.389 267.879 C 256.796 267.580,257.171 267.288,257.222 267.231 C 257.273 267.174,257.805 266.763,258.404 266.317 C 259.003 265.871,259.634 265.372,259.807 265.207 C 259.979 265.042,260.651 264.449,261.299 263.889 C 261.947 263.329,262.810 262.579,263.216 262.222 C 264.502 261.094,268.588 256.988,269.544 255.863 C 270.684 254.522,271.055 254.095,271.759 253.311 C 272.599 252.376,274.065 250.544,274.558 249.815 C 274.798 249.458,275.455 248.542,276.017 247.778 C 277.358 245.955,278.333 244.478,278.333 244.271 C 278.333 244.180,278.399 244.077,278.478 244.043 C 278.621 243.983,280.185 241.568,280.185 241.410 C 280.185 241.365,280.479 240.884,280.838 240.340 C 281.657 239.101,284.444 233.613,284.444 233.240 C 284.444 233.088,284.528 232.963,284.630 232.963 C 284.731 232.963,284.815 232.854,284.815 232.720 C 284.815 232.586,284.971 232.149,285.161 231.748 C 285.976 230.029,286.725 228.156,287.672 225.463 C 288.413 223.356,289.905 218.379,290.101 217.365 C 290.139 217.168,290.212 216.868,290.263 216.698 C 290.315 216.528,290.400 216.139,290.452 215.833 C 290.504 215.528,290.637 214.819,290.748 214.259 C 290.860 213.699,290.988 213.032,291.033 212.778 C 291.078 212.523,291.163 212.106,291.221 211.852 C 291.280 211.597,291.365 211.056,291.410 210.648 C 291.456 210.241,291.529 209.805,291.573 209.679 C 291.617 209.553,291.707 208.845,291.773 208.105 C 291.838 207.365,291.919 206.715,291.951 206.660 C 292.234 206.182,292.315 197.970,292.315 169.676 C 292.315 151.623,292.356 136.855,292.407 136.858 C 292.535 136.866,294.262 139.348,294.744 140.216 C 294.960 140.604,295.222 141.027,295.326 141.156 C 295.824 141.768,298.619 146.818,300.016 149.630 C 301.657 152.932,303.766 157.770,304.455 159.815 C 304.541 160.069,304.954 161.236,305.373 162.407 C 305.791 163.579,306.202 164.787,306.284 165.093 C 306.366 165.398,306.770 166.815,307.181 168.241 C 307.592 169.667,307.986 171.125,308.056 171.481 C 308.125 171.838,308.375 172.921,308.610 173.889 C 308.845 174.856,309.086 175.940,309.145 176.296 C 309.247 176.912,309.316 177.274,309.533 178.333 C 309.585 178.588,309.675 179.130,309.733 179.537 C 309.790 179.944,309.925 180.819,310.032 181.481 C 310.224 182.672,310.257 182.917,310.466 184.722 C 311.345 192.302,311.419 201.871,310.649 208.426 C 310.455 210.080,310.383 210.637,310.281 211.296 C 310.226 211.653,310.139 212.319,310.089 212.778 C 310.038 213.236,309.942 213.861,309.876 214.167 C 309.810 214.472,309.740 214.847,309.721 215.000 C 309.683 215.299,309.385 217.069,309.347 217.222 C 309.334 217.273,309.263 217.648,309.189 218.056 C 309.115 218.463,308.976 219.130,308.880 219.537 C 308.784 219.944,308.672 220.486,308.632 220.741 C 308.592 220.995,308.469 221.537,308.359 221.944 C 308.249 222.352,308.130 222.852,308.093 223.056 C 307.986 223.652,307.030 227.011,306.462 228.781 C 306.269 229.383,306.111 229.949,306.111 230.039 C 306.111 230.201,304.745 234.015,304.434 234.722 C 304.175 235.309,303.113 238.036,303.063 238.241 C 303.004 238.481,301.806 241.128,300.590 243.704 C 300.230 244.468,299.926 245.134,299.916 245.185 C 299.906 245.236,299.681 245.653,299.417 246.111 C 298.721 247.317,297.384 249.809,297.056 250.509 C 296.901 250.840,296.709 251.111,296.628 251.111 C 296.547 251.111,296.481 251.199,296.481 251.307 C 296.481 251.880,289.369 262.438,288.442 263.241 C 288.236 263.419,286.792 265.216,286.017 266.259 C 285.812 266.534,285.437 266.970,285.184 267.229 C 284.930 267.487,284.139 268.362,283.426 269.173 C 281.660 271.184,277.893 274.941,275.648 276.931 C 274.630 277.834,273.713 278.667,273.611 278.781 C 272.945 279.531,263.192 286.852,262.860 286.852 C 262.780 286.852,262.583 286.971,262.422 287.117 C 261.888 287.599,255.940 291.107,253.796 292.203 C 253.287 292.463,252.819 292.748,252.757 292.835 C 252.695 292.923,252.591 292.989,252.528 292.983 C 252.464 292.977,251.431 293.445,250.233 294.024 C 249.036 294.603,248.014 295.085,247.963 295.096 C 247.912 295.106,247.537 295.265,247.130 295.448 C 244.425 296.663,240.007 298.368,237.870 299.022 C 237.361 299.178,236.859 299.373,236.754 299.456 C 236.648 299.540,236.357 299.653,236.105 299.708 C 235.500 299.840,233.934 300.259,232.222 300.748 C 230.588 301.215,228.386 301.753,226.574 302.129 C 225.861 302.276,225.069 302.445,224.815 302.504 C 223.819 302.735,218.242 303.644,216.852 303.802 C 216.104 303.888,214.849 304.038,213.828 304.165 C 210.004 304.638,198.075 304.639,194.074 304.165 C 193.718 304.123,192.926 304.039,192.315 303.979 C 191.704 303.919,190.954 303.835,190.648 303.792 C 190.343 303.750,189.426 303.628,188.611 303.521 C 186.952 303.304,186.382 303.207,185.207 302.946 C 184.761 302.846,184.358 302.802,184.313 302.847 C 184.268 302.892,183.967 302.848,183.643 302.749 C 183.320 302.649,182.806 302.531,182.500 302.485 C 182.194 302.439,181.653 302.329,181.296 302.239 C 180.940 302.150,179.815 301.887,178.796 301.655 C 175.201 300.837,166.990 298.306,165.093 297.431 C 164.889 297.337,164.264 297.081,163.704 296.861 C 163.144 296.641,162.519 296.387,162.315 296.296 C 162.111 296.206,161.528 295.953,161.019 295.735 C 157.580 294.263,151.614 291.256,150.359 290.362 C 150.079 290.163,149.792 290.000,149.720 290.000 C 149.649 290.000,149.220 289.750,148.768 289.444 C 148.315 289.139,147.913 288.889,147.874 288.889 C 147.836 288.889,147.302 288.556,146.689 288.148 C 146.075 287.741,145.493 287.407,145.395 287.407 C 145.296 287.407,145.188 287.345,145.154 287.268 C 145.120 287.191,144.509 286.757,143.796 286.303 C 143.083 285.850,142.275 285.308,142.000 285.100 C 141.724 284.892,141.141 284.455,140.703 284.128 C 139.470 283.208,136.790 281.146,136.487 280.885 C 136.337 280.756,135.796 280.319,135.283 279.915 C 134.771 279.511,134.173 279.010,133.954 278.803 C 133.735 278.596,133.075 278.009,132.487 277.500 C 130.329 275.629,126.808 272.224,125.469 270.713 C 125.166 270.372,124.458 269.588,123.894 268.972 C 122.749 267.718,122.313 267.210,121.120 265.739 C 120.666 265.180,120.166 264.590,120.008 264.429 C 119.851 264.268,119.514 263.859,119.259 263.520 C 119.005 263.182,118.692 262.798,118.565 262.669 C 118.438 262.540,118.333 262.380,118.333 262.315 C 118.333 262.250,117.804 261.515,117.156 260.682 C 116.167 259.408,112.833 254.489,112.114 253.241 C 110.311 250.113,109.074 247.887,109.074 247.770 C 109.074 247.689,109.011 247.596,108.933 247.562 C 108.545 247.391,104.171 237.852,103.428 235.556 C 103.247 234.995,103.026 234.444,102.936 234.329 C 102.846 234.215,102.640 233.673,102.478 233.126 C 102.317 232.578,102.099 232.025,101.995 231.898 C 101.892 231.771,101.854 231.667,101.912 231.667 C 101.970 231.667,101.848 231.187,101.642 230.602 C 101.087 229.023,99.367 222.876,99.142 221.667 C 99.095 221.412,98.981 220.912,98.889 220.556 C 98.608 219.465,97.985 216.276,97.786 214.907 C 97.683 214.194,97.556 213.403,97.504 213.148 C 97.453 212.894,97.367 212.310,97.313 211.852 C 97.260 211.394,97.178 210.769,97.132 210.463 C 96.299 204.939,96.122 193.583,96.761 186.759 C 96.877 185.527,97.429 181.139,97.589 180.185 C 97.682 179.625,97.798 178.917,97.845 178.611 C 97.893 178.306,98.023 177.639,98.134 177.130 C 98.246 176.620,98.372 175.954,98.414 175.648 C 98.477 175.201,99.149 172.263,99.547 170.694 C 99.593 170.516,99.667 170.200,99.713 169.992 C 99.759 169.784,99.879 169.346,99.981 169.020 C 100.082 168.693,100.335 167.843,100.544 167.130 C 101.410 164.175,103.199 158.890,103.547 158.260 C 103.653 158.067,103.943 157.370,104.191 156.712 C 105.691 152.728,111.021 142.248,112.456 140.463 C 112.538 140.361,113.227 139.319,113.988 138.148 C 117.795 132.285,122.351 126.695,127.580 121.473 C 130.610 118.447,132.123 117.032,133.886 115.579 C 134.550 115.032,135.134 114.531,135.185 114.467 C 135.236 114.402,135.583 114.122,135.956 113.844 C 136.329 113.566,136.746 113.229,136.882 113.095 C 137.018 112.961,137.622 112.481,138.224 112.028 C 138.825 111.575,139.909 110.758,140.631 110.214 C 141.353 109.670,142.299 109.016,142.731 108.761 C 143.164 108.507,143.519 108.223,143.519 108.131 C 143.519 108.038,143.632 107.963,143.770 107.963 C 143.908 107.963,144.389 107.692,144.840 107.361 C 145.849 106.619,146.222 106.380,146.991 105.983 C 147.322 105.812,147.593 105.604,147.593 105.521 C 147.593 105.438,147.718 105.370,147.870 105.370 C 148.023 105.370,148.148 105.287,148.148 105.185 C 148.148 105.083,148.239 105.000,148.351 105.000 C 148.463 105.000,148.775 104.844,149.045 104.653 C 149.648 104.228,152.657 102.613,154.907 101.507 C 155.824 101.057,156.602 100.617,156.636 100.528 C 156.670 100.440,156.775 100.415,156.868 100.473 C 156.961 100.530,157.037 100.489,157.037 100.381 C 157.037 100.273,157.146 100.185,157.280 100.185 C 157.413 100.185,158.101 99.901,158.807 99.553 C 159.514 99.206,160.965 98.570,162.031 98.140 C 163.098 97.711,164.098 97.293,164.254 97.212 C 164.574 97.045,167.030 96.093,167.315 96.026 C 167.417 96.002,167.625 95.928,167.778 95.863 C 168.319 95.632,172.603 94.276,173.747 93.974 C 174.385 93.805,175.032 93.621,175.185 93.565 C 175.338 93.509,175.588 93.434,175.741 93.399 C 175.894 93.364,176.644 93.165,177.407 92.957 C 178.171 92.750,178.963 92.549,179.167 92.511 C 179.370 92.474,180.745 92.192,182.222 91.886 C 183.699 91.580,185.199 91.288,185.556 91.239 C 185.912 91.189,187.079 91.015,188.148 90.852 C 191.255 90.379,193.528 90.146,197.401 89.906 C 198.365 89.846,199.174 89.777,199.199 89.752 C 199.297 89.654,208.176 89.769,210.185 89.894 M144.284 132.982 C 142.270 133.367,139.897 135.378,139.533 137.010 C 139.495 137.178,139.393 137.565,139.306 137.870 C 138.148 141.914,142.102 146.096,146.538 145.521 C 150.712 144.979,153.151 140.364,151.317 136.478 C 150.082 133.861,147.195 132.426,144.284 132.982 M241.574 210.904 L 241.574 262.456 241.019 262.756 C 240.713 262.921,240.162 263.243,239.794 263.472 C 238.492 264.281,233.911 266.481,233.529 266.481 C 233.421 266.481,233.333 266.565,233.333 266.667 C 233.333 266.769,233.221 266.852,233.084 266.852 C 232.947 266.852,232.587 266.975,232.285 267.126 C 230.758 267.888,224.831 269.827,221.481 270.661 C 221.329 270.699,220.870 270.818,220.463 270.926 C 220.056 271.034,219.514 271.159,219.259 271.204 C 219.005 271.249,218.338 271.372,217.778 271.478 C 217.218 271.583,216.426 271.715,216.019 271.770 C 215.611 271.825,214.653 271.978,213.889 272.111 C 213.125 272.245,212.458 272.332,212.407 272.306 C 212.356 272.279,212.336 246.832,212.362 215.757 L 212.409 159.257 226.991 159.304 L 241.574 159.352 241.574 210.904 M31.481 178.237 C 29.797 178.688,28.718 179.491,27.375 181.292 C 26.727 182.161,26.511 183.737,26.494 187.718 L 26.481 190.714 22.639 190.774 C 17.746 190.850,16.622 191.268,15.009 193.611 C 13.604 195.651,13.598 199.130,14.997 200.788 C 15.743 201.673,16.118 202.023,16.852 202.521 C 18.135 203.391,18.171 203.397,22.450 203.507 L 26.474 203.611 26.543 207.315 C 26.636 212.317,27.103 213.548,29.511 215.150 C 32.704 217.274,37.137 215.959,38.756 212.407 C 39.304 211.205,39.305 211.198,39.329 207.407 L 39.352 203.611 43.426 203.519 C 47.458 203.427,47.510 203.421,48.430 202.910 C 52.488 200.660,53.216 195.924,50.017 192.596 C 48.547 191.066,47.796 190.861,43.241 190.746 L 39.352 190.648 39.334 187.299 C 39.324 185.457,39.264 183.623,39.200 183.223 C 38.655 179.816,34.825 177.341,31.481 178.237 M372.407 178.196 C 369.946 178.529,366.292 179.691,365.882 180.270 C 365.808 180.376,365.745 180.395,365.744 180.311 C 365.742 180.228,365.499 180.332,365.203 180.543 C 364.907 180.754,364.600 180.926,364.520 180.926 C 363.595 180.926,359.059 185.639,358.104 187.593 C 357.980 187.847,357.835 188.097,357.782 188.148 C 357.636 188.288,356.822 190.049,356.755 190.369 C 356.723 190.522,356.569 190.949,356.412 191.316 C 355.653 193.101,355.325 198.289,355.822 200.648 C 356.197 202.429,357.321 205.592,357.621 205.710 C 357.707 205.744,357.778 205.877,357.778 206.005 C 357.778 206.236,358.889 208.044,359.561 208.907 C 363.213 213.597,370.433 216.853,375.741 216.202 C 377.484 215.989,377.856 215.935,378.333 215.825 C 378.588 215.767,379.046 215.675,379.352 215.620 C 380.829 215.359,384.268 213.679,386.018 212.363 C 387.873 210.969,390.926 207.599,390.926 206.945 C 390.926 206.890,391.136 206.512,391.392 206.106 C 392.152 204.902,393.540 200.926,393.200 200.926 C 393.146 200.926,393.212 200.794,393.346 200.633 C 393.722 200.180,393.670 195.097,393.271 193.383 C 392.262 189.040,390.027 185.228,386.999 182.685 C 386.514 182.278,385.988 181.832,385.832 181.695 C 385.113 181.067,381.380 179.203,380.370 178.968 C 379.445 178.753,379.449 178.754,379.398 178.713 C 379.373 178.692,379.185 178.635,378.981 178.586 C 377.005 178.112,374.240 177.947,372.407 178.196 M199.444 228.667 L 199.444 272.700 197.829 272.559 C 196.941 272.481,195.961 272.379,195.653 272.333 C 195.345 272.287,194.676 272.195,194.167 272.128 C 193.383 272.026,192.336 271.843,188.704 271.175 C 187.303 270.917,184.818 270.258,182.832 269.618 C 182.505 269.512,182.089 269.397,181.906 269.361 C 181.724 269.324,180.991 269.074,180.278 268.805 C 179.565 268.536,178.979 268.340,178.975 268.371 C 178.972 268.401,178.639 268.286,178.235 268.114 C 177.831 267.943,176.917 267.579,176.204 267.306 C 174.783 266.762,172.672 265.812,171.158 265.035 L 170.186 264.537 170.186 224.537 L 170.185 184.537 184.815 184.586 L 199.444 184.634 199.444 228.667 M376.414 191.203 C 376.706 191.355,377.090 191.480,377.269 191.480 C 377.447 191.481,377.593 191.565,377.593 191.667 C 377.593 191.769,377.714 191.852,377.863 191.852 C 378.730 191.852,380.379 194.388,380.736 196.271 C 381.205 198.743,379.593 201.767,377.242 202.828 C 376.352 203.230,373.281 203.472,372.880 203.172 C 372.773 203.092,372.299 202.884,371.826 202.710 C 371.129 202.452,368.961 200.556,369.364 200.556 C 369.413 200.556,369.323 200.357,369.165 200.115 C 367.518 197.602,368.576 193.591,371.334 191.886 C 372.868 190.938,375.283 190.613,376.414 191.203 M157.267 233.123 L 157.315 256.431 155.741 255.159 C 151.444 251.686,146.251 246.386,143.362 242.526 C 142.817 241.799,142.317 241.162,142.249 241.111 C 142.182 241.060,141.715 240.394,141.211 239.630 C 140.708 238.866,140.229 238.213,140.148 238.179 C 140.067 238.145,140.000 238.006,140.000 237.870 C 140.000 237.735,139.933 237.596,139.850 237.562 C 139.768 237.528,139.428 237.020,139.095 236.434 C 138.763 235.848,138.393 235.265,138.273 235.138 C 138.153 235.011,137.881 234.574,137.667 234.167 C 137.454 233.759,137.089 233.093,136.855 232.685 C 136.374 231.845,135.007 229.122,134.576 228.148 C 134.419 227.792,134.103 227.083,133.874 226.574 C 133.646 226.065,133.444 225.606,133.426 225.556 C 133.409 225.505,133.341 225.338,133.277 225.185 C 133.061 224.676,132.722 223.799,132.667 223.611 C 132.637 223.509,132.191 222.226,131.675 220.760 C 131.159 219.293,130.693 217.835,130.640 217.519 C 130.587 217.203,130.427 216.569,130.284 216.111 C 129.982 215.141,129.573 213.282,129.215 211.250 L 128.962 209.815 143.091 209.815 L 157.219 209.815 157.267 233.123 M118.901 282.033 C 120.384 283.512,122.120 285.215,122.758 285.818 L 123.919 286.913 113.588 297.245 C 107.906 302.928,103.238 307.560,103.216 307.539 C 102.835 307.178,95.357 299.732,94.076 298.438 L 92.319 296.664 102.687 286.288 L 113.056 275.913 114.630 277.628 C 115.495 278.571,117.417 280.553,118.901 282.033 M85.971 308.472 C 96.244 318.686,100.019 322.497,100.225 322.860 C 100.378 323.128,51.349 372.241,49.563 373.610 C 48.375 374.520,45.385 376.045,44.960 375.957 C 44.887 375.942,44.596 376.020,44.312 376.130 C 42.081 376.993,38.107 377.119,35.278 376.418 C 31.769 375.547,29.629 374.377,27.144 371.969 C 22.547 367.514,20.923 360.047,23.231 353.981 C 24.606 350.367,23.791 351.258,46.442 328.611 C 73.888 301.170,76.005 299.074,76.281 299.074 C 76.412 299.074,80.772 303.303,85.971 308.472 M200.005 349.200 C 199.243 349.348,198.535 349.537,198.431 349.620 C 198.326 349.704,197.961 349.832,197.619 349.905 C 196.211 350.206,192.334 352.369,192.068 353.002 C 192.034 353.082,191.914 353.148,191.802 353.148 C 191.474 353.148,188.943 355.849,188.190 357.002 C 187.811 357.581,187.453 358.097,187.393 358.148 C 187.026 358.464,185.639 361.755,185.266 363.195 C 184.276 367.015,184.717 372.188,186.312 375.460 C 186.609 376.070,186.852 376.631,186.852 376.707 C 186.852 376.912,188.185 378.972,188.364 379.043 C 188.449 379.077,188.519 379.204,188.519 379.324 C 188.519 379.678,191.712 382.833,192.685 383.441 C 192.991 383.632,193.282 383.840,193.333 383.903 C 195.000 385.975,204.019 387.695,207.593 386.622 C 208.153 386.454,208.819 386.275,209.074 386.224 C 211.305 385.778,214.781 383.746,217.037 381.568 C 222.401 376.391,224.214 368.647,221.739 361.481 C 221.686 361.329,221.643 361.185,221.643 361.163 C 221.644 361.140,221.315 360.448,220.912 359.624 C 217.134 351.892,208.456 347.565,200.005 349.200 M372.778 349.142 C 369.338 350.138,368.284 352.087,368.259 357.500 L 368.241 361.389 364.630 361.436 C 362.644 361.463,360.894 361.538,360.741 361.605 C 360.588 361.671,360.404 361.714,360.333 361.699 C 359.193 361.467,356.137 364.426,355.777 366.111 C 354.595 371.642,357.775 374.527,364.922 374.406 C 368.777 374.341,368.365 373.837,368.318 378.557 C 368.276 382.683,368.494 383.505,370.032 385.040 C 372.555 387.559,377.029 387.595,379.104 385.113 C 380.896 382.971,381.019 382.515,381.019 378.010 L 381.019 374.445 384.074 374.424 C 389.275 374.387,389.913 374.214,391.876 372.310 C 392.370 371.831,392.728 371.365,392.672 371.275 C 392.616 371.185,392.657 371.111,392.762 371.111 C 393.442 371.111,393.848 367.654,393.362 366.008 C 392.384 362.700,390.307 361.597,384.907 361.515 L 381.019 361.457 381.075 358.844 C 381.178 354.077,380.789 352.548,378.994 350.651 C 377.619 349.198,374.880 348.533,372.778 349.142 M205.741 362.068 C 212.508 364.513,210.741 374.123,203.524 374.123 C 199.326 374.123,196.416 369.529,198.064 365.504 C 199.260 362.584,202.793 361.002,205.741 362.068 " stroke="none" fill="#b49444" fill-rule="evenodd"></path><path id="path1" d="M368.224 16.759 C 368.224 18.491,368.252 19.224,368.286 18.389 C 368.320 17.553,368.320 16.137,368.286 15.241 C 368.252 14.344,368.224 15.028,368.224 16.759 M254.155 18.750 L 253.611 19.352 254.213 18.808 C 254.774 18.301,254.900 18.148,254.757 18.148 C 254.725 18.148,254.454 18.419,254.155 18.750 M290.757 31.596 C 291.003 31.914,291.241 32.140,291.286 32.100 C 291.332 32.059,291.131 31.799,290.839 31.522 L 290.310 31.019 290.757 31.596 M368.224 35.926 C 368.224 37.606,368.252 38.294,368.286 37.454 C 368.320 36.613,368.320 35.238,368.286 34.398 C 368.252 33.558,368.224 34.245,368.224 35.926 M279.491 59.537 C 279.493 59.944,279.531 60.089,279.575 59.859 C 279.620 59.629,279.618 59.295,279.572 59.118 C 279.525 58.941,279.489 59.130,279.491 59.537 M279.487 63.148 C 279.487 63.505,279.526 63.650,279.572 63.472 C 279.619 63.294,279.619 63.002,279.572 62.824 C 279.526 62.646,279.487 62.792,279.487 63.148 M279.487 65.370 C 279.487 65.727,279.526 65.873,279.572 65.694 C 279.619 65.516,279.619 65.225,279.572 65.046 C 279.526 64.868,279.487 65.014,279.487 65.370 M279.491 68.056 C 279.493 68.463,279.531 68.608,279.575 68.377 C 279.620 68.147,279.618 67.814,279.572 67.637 C 279.525 67.460,279.489 67.648,279.491 68.056 M292.480 71.389 C 292.481 72.815,292.510 73.374,292.545 72.631 C 292.580 71.888,292.580 70.721,292.545 70.038 C 292.509 69.355,292.480 69.963,292.480 71.389 M279.497 90.648 C 279.499 91.157,279.535 91.344,279.577 91.062 C 279.620 90.781,279.619 90.364,279.575 90.136 C 279.531 89.909,279.496 90.139,279.497 90.648 M241.568 106.852 C 241.568 112.403,241.591 114.674,241.620 111.898 C 241.649 109.123,241.649 104.581,241.620 101.806 C 241.591 99.030,241.568 101.301,241.568 106.852 M202.260 108.470 C 202.943 108.506,204.110 108.506,204.853 108.471 C 205.596 108.436,205.037 108.407,203.611 108.406 C 202.185 108.406,201.577 108.435,202.260 108.470 M127.027 121.991 L 126.389 122.685 127.083 122.047 C 127.730 121.453,127.863 121.296,127.722 121.296 C 127.691 121.296,127.378 121.609,127.027 121.991 M241.439 138.982 C 241.412 143.107,241.451 146.482,241.528 146.482 C 241.604 146.482,241.667 143.106,241.667 138.981 C 241.667 134.856,241.627 131.481,241.578 131.481 C 241.529 131.481,241.467 134.857,241.439 138.982 M140.926 143.796 C 141.271 144.153,141.596 144.444,141.647 144.444 C 141.698 144.444,141.457 144.153,141.111 143.796 C 140.766 143.440,140.441 143.148,140.390 143.148 C 140.339 143.148,140.580 143.440,140.926 143.796 M201.192 148.380 L 200.648 148.981 201.250 148.438 C 201.811 147.931,201.937 147.778,201.794 147.778 C 201.762 147.778,201.491 148.049,201.192 148.380 M219.769 159.398 C 223.766 159.426,230.308 159.426,234.306 159.398 C 238.303 159.370,235.032 159.347,227.037 159.347 C 219.042 159.347,215.771 159.370,219.769 159.398 M241.573 210.926 C 241.573 239.190,241.594 250.752,241.620 236.620 C 241.647 222.488,241.647 199.363,241.620 185.231 C 241.594 171.100,241.573 182.662,241.573 210.926 M292.460 195.278 C 292.462 195.787,292.498 195.973,292.540 195.692 C 292.583 195.410,292.582 194.994,292.538 194.766 C 292.494 194.538,292.459 194.769,292.460 195.278 M355.426 196.667 C 355.426 197.227,355.461 197.456,355.503 197.176 C 355.545 196.896,355.545 196.438,355.503 196.157 C 355.461 195.877,355.426 196.106,355.426 196.667 M292.470 197.963 C 292.470 198.727,292.502 199.039,292.542 198.657 C 292.582 198.275,292.582 197.650,292.542 197.269 C 292.502 196.887,292.470 197.199,292.470 197.963 M83.391 198.796 C 83.392 199.407,83.426 199.635,83.468 199.302 C 83.509 198.969,83.508 198.469,83.466 198.191 C 83.423 197.913,83.390 198.185,83.391 198.796 M101.752 268.935 L 100.833 269.907 101.806 268.988 C 102.709 268.135,102.863 267.963,102.725 267.963 C 102.695 267.963,102.258 268.400,101.752 268.935 M286.296 284.472 C 285.940 284.785,285.816 284.956,286.021 284.852 C 286.359 284.681,287.198 283.879,287.019 283.896 C 286.978 283.901,286.653 284.160,286.296 284.472 M111.933 298.750 L 111.389 299.352 111.991 298.808 C 112.552 298.301,112.678 298.148,112.535 298.148 C 112.503 298.148,112.232 298.419,111.933 298.750 M70.879 304.200 C 68.562 306.507,66.689 308.417,66.717 308.446 C 66.745 308.474,68.683 306.585,71.023 304.249 C 73.363 301.913,75.236 300.002,75.185 300.003 C 75.134 300.004,73.197 301.892,70.879 304.200 M108.970 301.713 L 108.426 302.315 109.028 301.771 C 109.359 301.472,109.630 301.201,109.630 301.169 C 109.630 301.026,109.477 301.152,108.970 301.713 M101.204 305.556 C 102.218 306.574,103.090 307.407,103.141 307.407 C 103.192 307.407,102.404 306.574,101.389 305.556 C 100.374 304.537,99.502 303.704,99.451 303.704 C 99.400 303.704,100.189 304.537,101.204 305.556 M256.250 305.291 C 255.558 305.667,255.600 305.823,256.296 305.463 C 256.602 305.305,256.852 305.136,256.852 305.088 C 256.852 304.969,256.832 304.975,256.250 305.291 M104.340 306.343 L 103.796 306.944 104.398 306.401 C 104.729 306.101,105.000 305.831,105.000 305.799 C 105.000 305.656,104.847 305.782,104.340 306.343 M65.361 309.606 C 64.795 310.179,64.262 310.773,64.176 310.926 C 64.090 311.079,64.586 310.640,65.279 309.951 C 65.971 309.262,66.504 308.667,66.463 308.630 C 66.422 308.593,65.926 309.032,65.361 309.606 M90.548 313.194 C 91.002 313.678,91.398 314.074,91.427 314.074 C 91.566 314.074,91.419 313.908,90.602 313.140 L 89.722 312.315 90.548 313.194 M205.231 317.535 C 205.410 317.582,205.701 317.582,205.880 317.535 C 206.058 317.488,205.912 317.450,205.556 317.450 C 205.199 317.450,205.053 317.488,205.231 317.535 M94.630 346.906 C 89.384 352.128,84.973 356.564,84.828 356.765 C 84.682 356.965,88.994 352.713,94.411 347.315 C 103.513 338.245,104.347 337.403,104.213 337.410 C 104.187 337.411,99.875 341.685,94.630 346.906 M368.224 358.333 C 368.224 360.014,368.252 360.701,368.286 359.861 C 368.320 359.021,368.320 357.646,368.286 356.806 C 368.252 355.965,368.224 356.653,368.224 358.333 M368.224 377.593 C 368.224 379.273,368.252 379.961,368.286 379.120 C 368.320 378.280,368.320 376.905,368.286 376.065 C 368.252 375.225,368.224 375.912,368.224 377.593 M62.683 378.935 L 60.278 381.389 62.731 378.984 C 64.081 377.662,65.185 376.557,65.185 376.530 C 65.185 376.398,64.916 376.656,62.683 378.935 " stroke="none" fill="#b4944c" fill-rule="evenodd"></path><path id="path2" d="M363.380 19.953 C 364.271 19.987,365.729 19.987,366.620 19.953 C 367.512 19.919,366.782 19.891,365.000 19.891 C 363.218 19.891,362.488 19.919,363.380 19.953 M382.833 19.953 C 383.729 19.987,385.146 19.987,385.981 19.952 C 386.817 19.918,386.083 19.890,384.352 19.891 C 382.620 19.891,381.937 19.919,382.833 19.953 M244.591 51.619 C 245.231 51.655,246.231 51.655,246.813 51.618 C 247.394 51.581,246.870 51.552,245.648 51.552 C 244.426 51.553,243.950 51.583,244.591 51.619 M287.368 51.619 C 288.009 51.655,289.009 51.655,289.591 51.618 C 290.172 51.581,289.648 51.552,288.426 51.552 C 287.204 51.553,286.728 51.583,287.368 51.619 M254.536 155.185 C 254.536 208.810,254.557 230.748,254.583 203.935 C 254.609 177.123,254.609 133.248,254.583 106.435 C 254.557 79.623,254.536 101.560,254.536 155.185 M279.487 60.741 C 279.487 61.097,279.526 61.243,279.572 61.065 C 279.619 60.887,279.619 60.595,279.572 60.417 C 279.526 60.238,279.487 60.384,279.487 60.741 M279.487 64.259 C 279.487 64.616,279.526 64.762,279.572 64.583 C 279.619 64.405,279.619 64.113,279.572 63.935 C 279.526 63.757,279.487 63.903,279.487 64.259 M241.567 73.796 C 241.567 78.889,241.591 80.946,241.620 78.367 C 241.649 75.788,241.649 71.621,241.620 69.107 C 241.591 66.594,241.567 68.704,241.567 73.796 M292.478 66.759 C 292.478 67.981,292.508 68.457,292.545 67.817 C 292.581 67.176,292.581 66.176,292.544 65.595 C 292.507 65.013,292.478 65.537,292.478 66.759 M279.495 70.926 C 279.495 71.384,279.531 71.572,279.575 71.343 C 279.619 71.113,279.619 70.738,279.575 70.509 C 279.531 70.280,279.495 70.468,279.495 70.926 M292.470 75.185 C 292.470 75.949,292.502 76.262,292.542 75.880 C 292.582 75.498,292.582 74.873,292.542 74.491 C 292.502 74.109,292.470 74.421,292.470 75.185 M279.497 76.759 C 279.499 77.269,279.535 77.455,279.577 77.173 C 279.620 76.892,279.619 76.475,279.575 76.247 C 279.531 76.020,279.496 76.250,279.497 76.759 M279.500 83.333 C 279.500 83.894,279.535 84.123,279.577 83.843 C 279.620 83.563,279.620 83.104,279.577 82.824 C 279.535 82.544,279.500 82.773,279.500 83.333 M203.565 89.757 C 203.743 89.804,204.035 89.804,204.213 89.757 C 204.391 89.711,204.245 89.673,203.889 89.673 C 203.532 89.673,203.387 89.711,203.565 89.757 M279.491 98.981 C 279.493 99.389,279.531 99.534,279.575 99.303 C 279.620 99.073,279.618 98.740,279.572 98.563 C 279.525 98.386,279.489 98.574,279.491 98.981 M279.487 107.222 C 279.487 107.579,279.526 107.725,279.572 107.546 C 279.619 107.368,279.619 107.076,279.572 106.898 C 279.526 106.720,279.487 106.866,279.487 107.222 M292.278 109.074 C 292.278 109.634,292.312 109.863,292.355 109.583 C 292.397 109.303,292.397 108.845,292.355 108.565 C 292.312 108.285,292.278 108.514,292.278 109.074 M279.487 111.111 C 279.487 111.468,279.526 111.613,279.572 111.435 C 279.619 111.257,279.619 110.965,279.572 110.787 C 279.526 110.609,279.487 110.755,279.487 111.111 M201.806 121.427 C 202.035 121.471,202.410 121.471,202.639 121.427 C 202.868 121.383,202.681 121.347,202.222 121.347 C 201.764 121.347,201.576 121.383,201.806 121.427 M204.957 121.431 C 205.290 121.472,205.790 121.471,206.068 121.429 C 206.346 121.386,206.074 121.353,205.463 121.354 C 204.852 121.355,204.624 121.389,204.957 121.431 M292.222 137.407 C 292.222 137.713,292.254 137.963,292.294 137.963 C 292.333 137.963,292.402 137.713,292.447 137.407 C 292.492 137.102,292.460 136.852,292.375 136.852 C 292.291 136.852,292.222 137.102,292.222 137.407 M214.662 146.435 C 219.518 146.463,227.518 146.463,232.440 146.435 C 237.362 146.408,233.389 146.385,223.611 146.385 C 213.833 146.385,209.806 146.408,214.662 146.435 M292.275 174.167 C 292.277 174.676,292.313 174.862,292.355 174.581 C 292.398 174.299,292.397 173.883,292.353 173.655 C 292.309 173.427,292.274 173.657,292.275 174.167 M39.335 187.593 C 39.335 189.273,39.363 189.961,39.397 189.120 C 39.431 188.280,39.431 186.905,39.397 186.065 C 39.363 185.225,39.335 185.912,39.335 187.593 M50.362 192.917 C 50.706 193.350,51.021 193.704,51.062 193.704 C 51.193 193.704,50.399 192.662,50.062 192.391 C 49.883 192.247,50.018 192.484,50.362 192.917 M292.458 193.704 C 292.458 194.162,292.494 194.350,292.538 194.120 C 292.582 193.891,292.582 193.516,292.538 193.287 C 292.494 193.058,292.458 193.245,292.458 193.704 M83.404 195.648 C 83.404 196.870,83.434 197.346,83.471 196.706 C 83.507 196.065,83.507 195.065,83.470 194.483 C 83.433 193.902,83.404 194.426,83.404 195.648 M292.265 202.963 C 292.265 203.319,292.303 203.465,292.350 203.287 C 292.396 203.109,292.396 202.817,292.350 202.639 C 292.303 202.461,292.265 202.606,292.265 202.963 M21.806 203.656 C 22.646 203.691,24.021 203.691,24.861 203.656 C 25.701 203.622,25.014 203.594,23.333 203.594 C 21.653 203.594,20.965 203.622,21.806 203.656 M41.065 203.656 C 41.905 203.691,43.280 203.691,44.120 203.656 C 44.961 203.622,44.273 203.594,42.593 203.594 C 40.912 203.594,40.225 203.622,41.065 203.656 M39.335 206.759 C 39.335 208.491,39.363 209.224,39.397 208.389 C 39.431 207.553,39.431 206.137,39.397 205.241 C 39.363 204.344,39.335 205.028,39.335 206.759 M136.157 209.954 C 140.002 209.982,146.294 209.982,150.139 209.954 C 153.984 209.926,150.838 209.903,143.148 209.903 C 135.458 209.903,132.313 209.926,136.157 209.954 M311.389 250.741 C 311.231 251.046,311.143 251.296,311.194 251.296 C 311.245 251.296,311.416 251.046,311.574 250.741 C 311.732 250.435,311.820 250.185,311.769 250.185 C 311.718 250.185,311.547 250.435,311.389 250.741 M288.853 262.546 C 288.527 262.926,288.282 263.333,288.380 263.333 C 288.418 263.333,288.634 263.083,288.860 262.778 C 289.306 262.174,289.302 262.024,288.853 262.546 M179.537 282.222 C 179.741 282.310,180.032 282.381,180.185 282.381 C 180.360 282.381,180.326 282.323,180.093 282.222 C 179.889 282.135,179.597 282.063,179.444 282.063 C 179.269 282.063,179.304 282.122,179.537 282.222 M122.121 288.565 L 121.389 289.352 122.176 288.620 C 122.908 287.939,123.048 287.778,122.908 287.778 C 122.878 287.778,122.524 288.132,122.121 288.565 M119.340 291.343 L 118.796 291.944 119.398 291.401 C 119.729 291.101,120.000 290.831,120.000 290.799 C 120.000 290.656,119.847 290.782,119.340 291.343 M92.407 296.593 C 92.407 296.688,93.262 297.598,94.306 298.615 L 96.204 300.463 94.352 298.524 C 93.333 297.458,92.479 296.549,92.454 296.503 C 92.428 296.457,92.407 296.498,92.407 296.593 M57.958 317.176 L 56.759 318.426 58.009 317.228 C 59.170 316.114,59.344 315.926,59.208 315.926 C 59.179 315.926,58.617 316.488,57.958 317.176 M204.120 317.535 C 204.299 317.582,204.590 317.582,204.769 317.535 C 204.947 317.488,204.801 317.450,204.444 317.450 C 204.088 317.450,203.942 317.488,204.120 317.535 M53.796 321.121 C 53.066 321.838,53.365 321.829,54.130 321.112 C 54.456 320.807,54.639 320.562,54.537 320.567 C 54.435 320.572,54.102 320.822,53.796 321.121 M107.488 334.120 L 106.944 334.722 107.546 334.178 C 107.877 333.879,108.148 333.608,108.148 333.576 C 108.148 333.433,107.995 333.559,107.488 334.120 M105.822 335.787 L 105.278 336.389 105.880 335.845 C 106.211 335.546,106.481 335.275,106.481 335.243 C 106.481 335.100,106.329 335.226,105.822 335.787 M9.306 360.833 C 9.308 361.241,9.346 361.386,9.390 361.155 C 9.435 360.925,9.433 360.592,9.386 360.415 C 9.340 360.237,9.304 360.426,9.306 360.833 M73.330 368.287 L 71.389 370.278 73.380 368.337 C 75.229 366.534,75.455 366.296,75.321 366.296 C 75.293 366.296,74.398 367.192,73.330 368.287 M70.636 370.972 L 70.093 371.574 70.694 371.030 C 71.255 370.523,71.381 370.370,71.238 370.370 C 71.206 370.370,70.936 370.641,70.636 370.972 M67.867 373.750 L 65.833 375.833 67.917 373.799 C 69.852 371.910,70.084 371.667,69.951 371.667 C 69.923 371.667,68.986 372.604,67.867 373.750 " stroke="none" fill="#b89444" fill-rule="evenodd"></path></g></svg>